<svg width="1024" height="1024" viewBox="0 0 1024 1024" fill="none" xmlns="http://www.w3.org/2000/svg">
<rect width="1024" height="1024" fill="#121212"/>
<path d="M159 653.456C159 638.096 164.461 624.784 175.384 613.52C186.648 602.256 200.131 596.624 215.832 596.624C231.533 596.624 244.845 602.256 255.768 613.52C267.032 624.784 272.664 638.096 272.664 653.456C272.664 669.157 267.032 682.64 255.768 693.904C244.845 705.168 231.533 710.8 215.832 710.8C200.131 710.8 186.648 705.168 175.384 693.904C164.461 682.64 159 669.157 159 653.456Z" fill="#ED1C24"/>
<path d="M432.209 652.944C446.204 652.944 457.126 650.896 464.977 646.8C473.169 642.363 477.265 635.877 477.265 627.344C477.265 621.2 475.558 616.251 472.145 612.496C469.073 608.741 463.1 605.157 454.225 601.744C445.35 597.989 431.526 593.552 412.753 588.432C385.446 581.264 364.625 571.365 350.289 558.736C335.953 545.765 328.785 528.016 328.785 505.488C328.785 480.571 339.025 460.261 359.505 444.56C380.326 428.859 409.34 421.008 446.545 421.008C489.553 421.008 526.246 432.101 556.625 454.288L524.369 501.904C499.452 486.544 474.364 478.864 449.105 478.864C435.793 478.864 425.894 480.571 419.409 483.984C413.265 487.397 410.193 492.688 410.193 499.856C410.193 504.635 411.729 508.731 414.801 512.144C418.214 515.216 424.358 518.459 433.233 521.872C442.449 525.285 456.102 529.552 474.193 534.672C493.649 540.133 509.521 546.107 521.809 552.592C534.438 559.077 544.166 567.781 550.993 578.704C557.82 589.627 561.233 603.621 561.233 620.688C561.233 639.803 555.43 656.187 543.825 669.84C532.22 683.493 516.689 693.733 497.233 700.56C477.777 707.387 456.273 710.8 432.721 710.8C407.462 710.8 384.593 707.216 364.113 700.048C343.633 692.88 326.225 682.811 311.889 669.84L352.337 624.272C376.913 643.387 403.537 652.944 432.209 652.944Z" fill="white"/>
<path d="M681.896 461.36C704.765 437.125 731.389 425.008 761.768 425.008C785.661 425.008 804.093 432.176 817.064 446.512C830.035 460.507 836.52 480.475 836.52 506.416V706.096H755.624V528.944C755.624 512.56 753.747 501.125 749.992 494.64C746.237 488.155 739.411 484.912 729.512 484.912C721.32 484.912 713.299 487.813 705.448 493.616C697.939 499.077 690.088 507.269 681.896 518.192V706.096H601V326.192L681.896 318V461.36Z" fill="#0066B3"/>
</svg>
