<svg width="1024" height="1024" viewBox="0 0 1024 1024" fill="none"
  xmlns="http://www.w3.org/2000/svg">
  <g clip-path="url(#clip0_1161_3)">
    <rect width="1024" height="1024" fill="#121212" />
    <path
      d="M269.921 604.52C269.921 593 274.017 583.016 282.209 574.568C290.657 566.12 300.769 561.896 312.545 561.896C324.321 561.896 334.305 566.12 342.497 574.568C350.945 583.016 355.169 593 355.169 604.52C355.169 616.296 350.945 626.408 342.497 634.856C334.305 643.304 324.321 647.528 312.545 647.528C300.769 647.528 290.657 643.304 282.209 634.856C274.017 626.408 269.921 616.296 269.921 604.52Z"
      fill="#ED1C24" />
    <path
      d="M474.827 604.136C485.323 604.136 493.515 602.6 499.403 599.528C505.547 596.2 508.619 591.336 508.619 584.936C508.619 580.328 507.339 576.616 504.779 573.8C502.475 570.984 497.995 568.296 491.339 565.736C484.683 562.92 474.315 559.592 460.235 555.752C439.755 550.376 424.139 542.952 413.387 533.48C402.635 523.752 397.259 510.44 397.259 493.544C397.259 474.856 404.939 459.624 420.299 447.848C435.915 436.072 457.675 430.184 485.579 430.184C517.835 430.184 545.355 438.504 568.139 455.144L543.947 490.856C525.259 479.336 506.443 473.576 487.499 473.576C477.515 473.576 470.091 474.856 465.227 477.416C460.619 479.976 458.315 483.944 458.315 489.32C458.315 492.904 459.467 495.976 461.771 498.536C464.331 500.84 468.939 503.272 475.595 505.832C482.507 508.392 492.747 511.592 506.315 515.432C520.907 519.528 532.811 524.008 542.027 528.872C551.499 533.736 558.795 540.264 563.915 548.456C569.035 556.648 571.595 567.144 571.595 579.944C571.595 594.28 567.243 606.568 558.539 616.808C549.835 627.048 538.187 634.728 523.595 639.848C509.003 644.968 492.875 647.528 475.211 647.528C456.267 647.528 439.115 644.84 423.755 639.464C408.395 634.088 395.339 626.536 384.587 616.808L414.923 582.632C433.355 596.968 453.323 604.136 474.827 604.136Z"
      fill="white" />
    <path
      d="M683.957 457.448C701.109 439.272 721.077 430.184 743.861 430.184C761.781 430.184 775.605 435.56 785.333 446.312C795.061 456.808 799.925 471.784 799.925 491.24V641H739.253V508.136C739.253 495.848 737.845 487.272 735.029 482.408C732.213 477.544 727.093 475.112 719.669 475.112C713.525 475.112 707.509 477.288 701.621 481.64C695.989 485.736 690.101 491.88 683.957 500.072V641H623.285V356.072L683.957 349.928V457.448Z"
      fill="#0066B3" />
  </g>
  <defs>
    <clipPath id="clip0_1161_3">
      <rect width="1024" height="1024" fill="white" />
    </clipPath>
  </defs>
</svg>
